<svg width="20" height="29" viewBox="0 0 20 29" fill="none" xmlns="http://www.w3.org/2000/svg">
<path d="M3.68077 9.46001H9.42545M12.8723 9.46001H14.7872M3.68077 13.66H9.42545M12.8723 13.66H14.7872M3.68077 18.46H9.42545M12.8723 18.46H14.7872M0.894635 27.75L1.09709 27.9615C1.47002 28.351 2.08462 28.3747 2.4864 28.015L3.77973 26.8571C4.15943 26.5172 4.73403 26.5172 5.11373 26.8571L6.46058 28.0629C6.84028 28.4028 7.41488 28.4028 7.79458 28.0629L9.18427 26.8188C9.54539 26.4955 10.0864 26.4777 10.4679 26.7766L12.2128 28.1434C12.5943 28.4423 13.1353 28.4245 13.4964 28.1012L14.9289 26.8188C15.2901 26.4955 15.831 26.4777 16.2126 26.7766L17.0003 27.3936C17.6566 27.9078 18.6169 27.4401 18.6169 26.6064V2.14696C18.6169 1.83958 18.4756 1.54928 18.2336 1.35973L18.1275 1.27662C17.7459 0.977724 17.205 0.995496 16.8438 1.31879L15.4542 2.56288C15.0745 2.90281 14.4999 2.90281 14.1202 2.56288L12.7305 1.31879C12.3693 0.995496 11.8284 0.977724 11.4468 1.27662L9.70197 2.6434C9.32041 2.9423 8.77943 2.92452 8.41831 2.60123L7.02863 1.35714C6.64892 1.01721 6.07433 1.01721 5.69462 1.35714L4.30494 2.60123C3.94382 2.92452 3.40284 2.9423 3.02128 2.6434L2.23361 2.02639C1.57726 1.51225 0.616943 1.97987 0.616943 2.81362V27.0585C0.616943 27.3162 0.716422 27.5639 0.894635 27.75Z" stroke="#13D684" stroke-linecap="round"/>
</svg>
