<svg width="32" height="32" viewBox="0 0 32 32" fill="none" xmlns="http://www.w3.org/2000/svg">
<path d="M24 17.3333C26.9455 17.3333 29.3333 14.9455 29.3333 12C29.3333 9.05448 26.9455 6.66667 24 6.66667C22.9023 6.66667 21.882 6.99832 21.0339 7.56691M21.0339 7.56691C20.3049 5.48952 18.3264 4 16 4C13.6736 4 11.6951 5.48952 10.9661 7.56691M21.0339 7.56691C21.2279 8.11975 21.3333 8.71421 21.3333 9.33333C21.3333 9.79373 21.2749 10.2405 21.1653 10.6667M10.9661 7.56691C10.1181 6.99832 9.09776 6.66667 8 6.66667C5.05448 6.66667 2.66667 9.05448 2.66667 12C2.66667 14.9455 5.05448 17.3333 8 17.3333M10.9661 7.56691C11.6432 8.0208 12.2105 8.62567 12.6198 9.33333" stroke="#7023BD" stroke-width="1.2" stroke-linecap="round" stroke-linejoin="round"/>
<path d="M8 23.3333C10.1321 22.5035 12.9327 22 16 22C19.0673 22 21.868 22.5035 24 23.3333" stroke="#7023BD" stroke-width="1.2" stroke-linecap="round"/>
<path d="M6.66667 28C9.15408 27.1701 12.4215 26.6667 16 26.6667C19.5785 26.6667 22.8459 27.1701 25.3333 28" stroke="#7023BD" stroke-width="1.2" stroke-linecap="round"/>
<path d="M24 16V26.6667M8 16V26.6667" stroke="#7023BD" stroke-width="1.2" stroke-linecap="round"/>
</svg>

