<svg width="22" height="22" viewBox="0 0 22 22" fill="none" xmlns="http://www.w3.org/2000/svg">
<path d="M8 21H14C19 21 21 19 21 14V8C21 3 19 1 14 1H8C3 1 1 3 1 8V14C1 19 3 21 8 21Z" stroke="#0FBC20" stroke-linecap="round" stroke-linejoin="round"/>
<path d="M1 11.7001L7 11.6801C7.75 11.6801 8.59 12.2501 8.87 12.9501L10.01 15.8301C10.27 16.4801 10.68 16.4801 10.94 15.8301L13.23 10.0201C13.45 9.46011 13.86 9.44011 14.14 9.97011L15.18 11.9401C15.49 12.5301 16.29 13.0101 16.95 13.0101H21.01" stroke="#0FBC20" stroke-linecap="round" stroke-linejoin="round"/>
</svg>
