<svg width="28" height="25" viewBox="0 0 28 25" fill="none" xmlns="http://www.w3.org/2000/svg">
<g clip-path="url(#clip0_13_39)">
<path d="M5.98003 6.23675L6.37695 6.54081C6.45357 6.44079 6.4896 6.31554 6.47785 6.1901L5.98003 6.23675ZM9.93795 3.15303L9.64865 3.56083C9.79077 3.66166 9.97514 3.68122 10.1352 3.61246L9.93795 3.15303ZM21.0709 18.9976L20.7055 18.6564C20.619 18.749 20.5709 18.871 20.5709 18.9976H21.0709ZM16.9848 21.6298L17.4421 21.4277C17.3377 21.1915 17.0707 21.0736 16.8258 21.1557L16.9848 21.6298ZM10.7499 21.649L10.9058 21.1739C10.6616 21.0937 10.3964 21.2118 10.2925 21.4469L10.7499 21.649ZM6.67217 19.068H7.17217C7.17217 18.9397 7.12281 18.8162 7.0343 18.7232L6.67217 19.068ZM4.47756 15.4571L4.95054 15.295C4.88126 15.0929 4.69121 14.9571 4.47756 14.9571V15.4571ZM4.47752 9.03805V9.53805C4.69118 9.53805 4.88123 9.40229 4.95051 9.20018L4.47752 9.03805ZM6.47785 6.1901L6.08986 2.04901L5.09422 2.1423L5.48221 6.28339L6.47785 6.1901ZM6.08986 2.04901C6.04997 1.62327 6.52823 1.34715 6.87698 1.59457L7.45559 0.778956C6.40932 0.0367149 4.97456 0.865081 5.09422 2.1423L6.08986 2.04901ZM6.87698 1.59457L9.64865 3.56083L10.2273 2.74523L7.45559 0.778956L6.87698 1.59457ZM13.8384 1.85445C12.3842 1.85445 10.9986 2.15337 9.74065 2.6936L10.1352 3.61246C11.2709 3.12478 12.5224 2.85445 13.8384 2.85445V1.85445ZM24.2315 12.2475C24.2315 6.50759 19.5783 1.85445 13.8384 1.85445V2.85445C19.026 2.85445 23.2315 7.05987 23.2315 12.2475H24.2315ZM21.4364 19.3389C23.1699 17.4823 24.2315 14.9883 24.2315 12.2475H23.2315C23.2315 14.7251 22.2729 16.9777 20.7055 18.6564L21.4364 19.3389ZM21.5709 22.9647V18.9976H20.5709V22.9647H21.5709ZM20.0709 24.4647C20.8994 24.4647 21.5709 23.7932 21.5709 22.9647H20.5709C20.5709 23.2409 20.3471 23.4647 20.0709 23.4647V24.4647ZM18.6678 24.4647H20.0709V23.4647H18.6678V24.4647ZM17.2958 23.5709C17.5358 24.1142 18.0738 24.4647 18.6678 24.4647V23.4647C18.4698 23.4647 18.2905 23.3479 18.2105 23.1668L17.2958 23.5709ZM16.5274 21.8318L17.2958 23.5709L18.2105 23.1668L17.4421 21.4277L16.5274 21.8318ZM13.8384 22.6406C14.993 22.6406 16.1047 22.4521 17.1437 22.1039L16.8258 21.1557C15.888 21.4701 14.8836 21.6406 13.8384 21.6406V22.6406ZM10.5939 22.124C11.6154 22.4594 12.7062 22.6406 13.8384 22.6406V21.6406C12.8135 21.6406 11.8279 21.4767 10.9058 21.1739L10.5939 22.124ZM10.4473 23.5709L11.2072 21.851L10.2925 21.4469L9.53264 23.1668L10.4473 23.5709ZM9.07529 24.4647C9.66927 24.4647 10.2073 24.1142 10.4473 23.5709L9.53264 23.1668C9.45263 23.3479 9.27328 23.4647 9.07529 23.4647V24.4647ZM7.67217 24.4647H9.07529V23.4647H7.67217V24.4647ZM6.17217 22.9647C6.17217 23.7932 6.84374 24.4647 7.67217 24.4647V23.4647C7.39603 23.4647 7.17217 23.2409 7.17217 22.9647H6.17217ZM6.17217 19.068V22.9647H7.17217V19.068H6.17217ZM4.00458 15.6193C4.49534 17.0509 5.28959 18.3409 6.31004 19.4128L7.0343 18.7232C6.11129 17.7537 5.39369 16.5877 4.95054 15.295L4.00458 15.6193ZM2 15.9571H4.47756V14.9571H2V15.9571ZM0.5 14.4571C0.5 15.2855 1.17157 15.9571 2 15.9571V14.9571C1.72386 14.9571 1.5 14.7333 1.5 14.4571H0.5ZM0.5 10.038V14.4571H1.5V10.038H0.5ZM2 8.53805C1.17157 8.53805 0.5 9.20962 0.5 10.038H1.5C1.5 9.76191 1.72386 9.53805 2 9.53805V8.53805ZM4.47752 8.53805H2V9.53805H4.47752V8.53805ZM5.58311 5.93269C4.90866 6.81311 4.37167 7.80489 4.00454 8.87592L4.95051 9.20018C5.28202 8.23306 5.76712 7.33689 6.37695 6.54081L5.58311 5.93269Z" fill="#D920A5"/>
<path d="M23.7315 11.3351C24.6052 11.6131 26.3408 11.8117 26.2931 10.382M26.2931 10.382C26.2336 8.59482 25.6379 7.52172 24.8634 8.41531C24.0889 9.3089 25.4591 10.382 26.2931 10.382ZM26.2931 10.382C26.578 10.4875 27.0377 10.3966 27.4919 10.2167" stroke="#D920A5" stroke-linecap="round" stroke-linejoin="round"/>
<path d="M16.6448 7.10874C15.8275 6.71457 14.9305 6.49689 13.9896 6.49689C13.0487 6.49689 12.1517 6.71457 11.3344 7.10874" stroke="#D920A5" stroke-linecap="round" stroke-linejoin="round"/>
<path d="M7 12C7.55228 12 8 11.5523 8 11C8 10.4477 7.55228 10 7 10C6.44772 10 6 10.4477 6 11C6 11.5523 6.44772 12 7 12Z" fill="#D920A5"/>
</g>
<defs>
<clipPath id="clip0_13_39">
<rect width="28" height="25" fill="white"/>
</clipPath>
</defs>
</svg>

