<svg width="17" height="20" viewBox="0 0 17 20" fill="none" xmlns="http://www.w3.org/2000/svg">
<path fill-rule="evenodd" clip-rule="evenodd" d="M9.34992 0.379912L16.3499 7.37991C16.5167 7.51873 16.6152 7.72298 16.6199 7.93991V14.9399C16.6199 16.1997 16.1195 17.4079 15.2287 18.2987C14.3379 19.1895 13.1297 19.6899 11.8699 19.6899H8.99992C8.58571 19.6899 8.24992 19.3541 8.24992 18.9399C8.24992 18.5257 8.58571 18.1899 8.99992 18.1899H11.8199C13.6148 18.1899 15.0699 16.7348 15.0699 14.9399V8.68991H10.8199C9.30341 8.68443 8.0754 7.45642 8.06992 5.93991V1.68991H5.81992C4.02727 1.6954 2.57541 3.14727 2.56992 4.93991V9.93991C2.56992 10.3541 2.23413 10.6899 1.81992 10.6899C1.40571 10.6899 1.06992 10.3541 1.06992 9.93991V4.93991C1.06193 3.67494 1.55885 2.45904 2.45051 1.56174C3.34218 0.664448 4.55493 0.159887 5.81992 0.159912H8.81992C9.01876 0.160087 9.2094 0.23922 9.34992 0.379912ZM9.56992 2.71991V5.93991C9.56992 6.63027 10.1296 7.18991 10.8199 7.18991H13.9999L9.56992 2.71991Z" fill="black"/>
<path d="M7.111 12.5111C7.111 12.5022 7.10211 12.4933 7.09322 12.4844C7.05766 12.4311 7.01321 12.3778 6.96876 12.3333C6.95987 12.3244 6.95098 12.3067 6.94209 12.2978C6.22201 11.4978 5.1641 11 3.99952 11C2.87938 11 1.85704 11.4622 1.12806 12.2089C0.512944 12.8434 0.125263 13.6637 0.0255505 14.5417C-0.0741625 15.4197 0.119705 16.306 0.576884 17.0622C0.772463 17.3911 1.02138 17.6933 1.30586 17.9422C1.32364 17.9511 1.33253 17.96 1.34142 17.9689C1.38587 18.0133 1.43032 18.0489 1.48366 18.0933H1.49255C1.50144 18.1022 1.51033 18.1111 1.51922 18.1111C2.18597 18.6711 3.04829 19 3.99952 19C5.45747 19 6.72874 18.2178 7.42215 17.0622C7.62662 16.7156 7.78664 16.3333 7.88443 15.9333C7.96444 15.6311 8 15.32 8 15C8 14.0578 7.67107 13.1867 7.111 12.5111ZM5.49303 15.6489H4.66627V16.5111C4.66627 16.8756 4.36401 17.1778 3.99952 17.1778C3.63503 17.1778 3.33277 16.8756 3.33277 16.5111V15.6489H2.50601C2.14152 15.6489 1.83926 15.3467 1.83926 14.9822C1.83926 14.6178 2.14152 14.3156 2.50601 14.3156H3.33277V13.5244C3.33277 13.16 3.63503 12.8578 3.99952 12.8578C4.36401 12.8578 4.66627 13.16 4.66627 13.5244V14.3156H5.49303C5.66986 14.3156 5.83945 14.3858 5.96449 14.5108C6.08953 14.6358 6.15978 14.8054 6.15978 14.9822C6.15978 15.159 6.08953 15.3286 5.96449 15.4536C5.83945 15.5787 5.66986 15.6489 5.49303 15.6489Z" fill="black"/>
</svg>
