<svg width="22" height="22" viewBox="0 0 22 22" fill="none" xmlns="http://www.w3.org/2000/svg">
<path opacity="0.6" d="M21.0399 7.58908L20.7599 4.80908C20.3399 1.78908 18.9699 0.559082 16.0399 0.559082H12.1999L12.9399 8.05908C12.9499 8.15908 12.9599 8.26908 12.9599 8.45908C13.0199 8.97908 13.1799 9.45908 13.4199 9.88908C14.1399 11.2091 15.5399 12.0591 16.9999 12.0591C18.3299 12.0591 19.5299 11.4691 20.2799 10.4291C20.8699 9.63908 21.1399 8.62908 21.0399 7.58908ZM5.26995 0.570082C2.32995 0.570082 0.969948 1.80008 0.539948 4.85008L0.269948 7.60008C0.169948 8.67008 0.459948 9.71008 1.08995 10.5201C1.84995 11.5101 3.01995 12.0701 4.31995 12.0701C5.77995 12.0701 7.17995 11.2201 7.88995 9.92008C8.14995 9.47008 8.31995 8.95008 8.36995 8.41008L9.14995 0.580082H5.26995V0.570082Z" fill="#0071FF"/>
<path opacity="0.4" d="M20.0501 10.7099V16.6999C20.0501 19.4599 17.8101 21.6999 15.0501 21.6999H6.31006C6.08006 21.6999 5.85006 21.6799 5.63006 21.6499C6.00006 21.4899 6.33006 21.2699 6.63006 20.9999C6.67006 20.9699 6.70006 20.9399 6.73006 20.8999C7.00006 20.6699 7.23006 20.3799 7.42006 20.0599C7.79006 19.4599 8.00006 18.7499 8.00006 17.9999C8.00006 16.9499 7.59006 15.9999 6.93006 15.2799C6.83006 15.1699 6.72006 15.0599 6.60006 14.9699C5.90006 14.3599 5.00006 13.9999 4.00006 13.9999C3.29006 13.9999 2.62006 14.1899 2.04006 14.5199C1.85006 14.6199 1.67006 14.7399 1.50006 14.8799C1.43006 14.9299 1.37006 14.9899 1.31006 15.0499V10.7799C2.07006 11.5999 3.15006 12.0699 4.32006 12.0699C5.58006 12.0699 6.79006 11.4399 7.55006 10.4299C7.89708 10.9392 8.36415 11.3552 8.91003 11.6412C9.45591 11.9273 10.0638 12.0745 10.6801 12.0699C11.9601 12.0699 13.1001 11.4699 13.7901 10.4699C14.5601 11.4599 15.7501 12.0699 16.9901 12.0699C18.2001 12.0699 19.3001 11.5799 20.0501 10.7099Z" fill="#0071FF" fill-opacity="0.85"/>
<path d="M13.6691 0.569824H7.66905L6.92905 7.92982C6.86905 8.60982 6.96905 9.24982 7.21905 9.82982C7.79905 11.1898 9.15905 12.0698 10.6791 12.0698C12.2191 12.0698 13.5491 11.2098 14.1491 9.83982C14.3291 9.40982 14.4391 8.90982 14.4491 8.39982V8.20982L13.6691 0.569824Z" fill="black"/>
<path d="M6.93002 15.28C6.83002 15.17 6.72002 15.06 6.60002 14.97C5.90002 14.36 5.00002 14 4.00002 14C3.29002 14 2.62002 14.19 2.04002 14.52C1.85002 14.62 1.67002 14.74 1.50002 14.88C1.03062 15.253 0.651817 15.7275 0.392028 16.2679C0.132239 16.8083 -0.00178404 17.4004 1.7933e-05 18C1.7933e-05 18.75 0.210018 19.46 0.580018 20.06C0.670018 20.22 0.780018 20.37 0.900018 20.51C0.920018 20.54 0.950018 20.56 0.970018 20.59C1.69002 21.45 2.78002 22 4.00002 22C5.01002 22 5.93002 21.63 6.63002 21C6.67002 20.97 6.70002 20.94 6.73002 20.9C7.00002 20.67 7.23002 20.38 7.42002 20.06C7.79002 19.46 8.00002 18.75 8.00002 18C8.00002 16.95 7.59002 16 6.93002 15.28ZM5.50002 18.73H4.75002V19.51C4.75002 19.92 4.41002 20.26 4.00002 20.26C3.59002 20.26 3.25002 19.92 3.25002 19.51V18.73H2.50002C2.09002 18.73 1.75002 18.39 1.75002 17.98C1.75002 17.57 2.09002 17.23 2.50002 17.23H3.25002V16.52C3.25002 16.11 3.59002 15.77 4.00002 15.77C4.41002 15.77 4.75002 16.11 4.75002 16.52V17.23H5.50002C5.91002 17.23 6.25002 17.57 6.25002 17.98C6.25002 18.39 5.91002 18.73 5.50002 18.73Z" fill="black"/>
</svg>
