<svg width="94" height="104" viewBox="0 0 94 104" fill="none" xmlns="http://www.w3.org/2000/svg">
<path d="M90.16 23.5508C74.2204 21.9712 58.1851 21.1575 42.1976 21.1575C32.72 21.1575 23.2424 21.6362 13.7648 22.5935L4 23.5508" stroke="#FF0000" stroke-width="7.18" stroke-linecap="round" stroke-linejoin="round"/>
<path d="M30.3267 18.7164L31.3797 12.4459C32.1456 7.89853 32.72 4.5 40.8095 4.5H53.3505C61.44 4.5 62.0623 8.09 62.7803 12.4937L63.8333 18.7164" stroke="#FF0000" stroke-width="7.18" stroke-linecap="round" stroke-linejoin="round"/>
<path d="M79.8687 38.6768L76.7573 86.8785C76.2308 94.3936 75.8 100.233 62.4452 100.233H31.7149C18.3601 100.233 17.9293 94.3936 17.4028 86.8785L14.2914 38.6768" stroke="#FF0000" stroke-width="7.18" stroke-linecap="round" stroke-linejoin="round"/>
<path d="M39.0863 73.9067H55.0259" stroke="#FF0000" stroke-width="7.18" stroke-linecap="round" stroke-linejoin="round"/>
<path d="M35.1133 54.76H59.0467" stroke="#FF0000" stroke-width="7.18" stroke-linecap="round" stroke-linejoin="round"/>
</svg>
