<svg width="18" height="20" viewBox="0 0 18 20" fill="none" xmlns="http://www.w3.org/2000/svg">
<path fill-rule="evenodd" clip-rule="evenodd" d="M3.57 9.41988C4.18323 9.69388 4.68677 10.1657 5 10.7599L7.64 15.5699C7.83762 15.9277 7.93763 16.3312 7.93 16.7399L7.88 18.7399C7.87836 19.1527 7.65749 19.5335 7.3 19.7399C7.13675 19.8263 6.95468 19.8709 6.77 19.8699C6.54744 19.869 6.32945 19.8067 6.14 19.6899L4.46 18.6899C4.11098 18.4744 3.82475 18.1709 3.63 17.8099L0.999997 12.9999C0.668643 12.3855 0.555813 11.6768 0.679997 10.9899C0.75635 10.3414 1.1246 9.76325 1.68 9.41988C2.27514 9.12352 2.97485 9.12352 3.57 9.41988ZM5.23 17.3599L6.39 18.0599L6.38 16.6799C6.37661 16.5332 6.33894 16.3894 6.27 16.2599L3.64 11.4499C3.48697 11.1471 3.23704 10.9042 2.93 10.7599C2.82744 10.7087 2.71462 10.6813 2.6 10.6799C2.51638 10.6807 2.43414 10.7012 2.36 10.7399C2.19422 10.851 2.08762 11.0311 2.07 11.2299C2.0243 11.5762 2.09463 11.9278 2.27 12.2299L4.9 16.9999C4.97088 17.1506 5.08599 17.2762 5.23 17.3599Z" fill="black"/>
<path fill-rule="evenodd" clip-rule="evenodd" d="M10.2199 0.349883L17.2199 7.34988C17.3682 7.49766 17.4479 7.70069 17.4399 7.90988V14.9099C17.4399 16.1697 16.9395 17.3778 16.0487 18.2686C15.1579 19.1594 13.9497 19.6599 12.6899 19.6599H9.8199C9.40569 19.6599 9.0699 19.3241 9.0699 18.9099C9.0699 18.4957 9.40569 18.1599 9.8199 18.1599H12.6899C14.4826 18.1544 15.9344 16.7025 15.9399 14.9099V8.65988H11.6899C10.1734 8.6544 8.94539 7.42639 8.9399 5.90988V1.65988H6.6899C4.89498 1.65988 3.4399 3.11496 3.4399 4.90988V7.55988C3.4399 7.9741 3.10412 8.30988 2.6899 8.30988C2.27569 8.30988 1.9399 7.9741 1.9399 7.55988V4.90988C1.93192 3.64491 2.42883 2.42901 3.3205 1.53172C4.21216 0.634419 5.42491 0.129858 6.6899 0.129883H9.6899C9.88875 0.130058 10.0794 0.20919 10.2199 0.349883ZM10.4399 2.68988V5.90988C10.4399 6.60024 10.9995 7.15988 11.6899 7.15988H14.9099L10.4399 2.68988Z" fill="black"/>
</svg>
