<svg width="21" height="21" viewBox="0 0 21 21" fill="none" xmlns="http://www.w3.org/2000/svg">
<path d="M16.751 5.04996C16.511 5.00996 16.261 4.99996 16.001 4.99996H6.001C5.721 4.99996 5.451 5.01996 5.191 5.05996C5.331 4.77996 5.531 4.51996 5.771 4.27996L9.021 1.01996C9.68102 0.366539 10.5722 0 11.501 0C12.4298 0 13.321 0.366539 13.981 1.01996L15.731 2.78996C16.371 3.41996 16.711 4.21996 16.751 5.04996ZM4 13C1.79 13 0 14.79 0 17C0 17.75 0.21 18.46 0.58 19.06C0.932533 19.6525 1.43329 20.1429 2.03296 20.4831C2.63264 20.8233 3.31056 21.0014 4 21C5.46 21 6.73 20.22 7.42 19.06C7.79 18.46 8 17.75 8 17C8 14.79 6.21 13 4 13ZM5.49 17.73H4.75V18.51C4.75 18.92 4.41 19.26 4 19.26C3.59 19.26 3.25 18.92 3.25 18.51V17.73H2.51C2.1 17.73 1.76 17.39 1.76 16.98C1.76 16.57 2.1 16.23 2.51 16.23H3.25V15.52C3.25 15.11 3.59 14.77 4 14.77C4.41 14.77 4.75 15.11 4.75 15.52V16.23H5.49C5.68891 16.23 5.87968 16.309 6.02033 16.4496C6.16098 16.5903 6.24 16.781 6.24 16.98C6.24 17.1789 6.16098 17.3696 6.02033 17.5103C5.87968 17.6509 5.68891 17.73 5.49 17.73Z" fill="black"/>
<path opacity="0.6" d="M21 10V15C21 18 19 20 16 20H6.63C6.94 19.74 7.21 19.42 7.42 19.06C7.79 18.46 8 17.75 8 17C8 14.79 6.21 13 4 13C2.8 13 1.73 13.53 1 14.36V10C1 7.28 2.64 5.38 5.19 5.06C5.45 5.02 5.72 5 6 5H16C16.26 5 16.51 5.01 16.75 5.05C19.33 5.35 21 7.26 21 10Z" fill="#0071FF"/>
<path d="M21 10.5H18C16.9 10.5 16 11.4 16 12.5C16 13.6 16.9 14.5 18 14.5H21" fill="black"/>
</svg>
