<svg width="24" height="25" viewBox="0 0 24 25" fill="none" xmlns="http://www.w3.org/2000/svg">
<path fill-rule="evenodd" clip-rule="evenodd" d="M6.79289 2.29289C7.23324 1.85255 7.87477 1.5 8.6 1.5H15.5C15.7652 1.5 16.0196 1.60536 16.2071 1.79289L20.7071 6.29289C20.8946 6.48043 21 6.73478 21 7V16.9C21 17.6252 20.6475 18.2668 20.2071 18.7071C19.7668 19.1475 19.1252 19.5 18.4 19.5H8.6C7.87477 19.5 7.23324 19.1475 6.79289 18.7071C6.35255 18.2668 6 17.6252 6 16.9V4.1C6 3.37477 6.35255 2.73324 6.79289 2.29289ZM8.6 3.5C8.52523 3.5 8.36676 3.54745 8.20711 3.70711C8.04745 3.86676 8 4.02523 8 4.1V16.9C8 16.9748 8.04745 17.1332 8.20711 17.2929C8.36676 17.4525 8.52523 17.5 8.6 17.5H18.4C18.4748 17.5 18.6332 17.4525 18.7929 17.2929C18.9525 17.1332 19 16.9748 19 16.9V7.41421L15.0858 3.5H8.6Z" fill="#13D684"/>
<path fill-rule="evenodd" clip-rule="evenodd" d="M3 7.09998C3.55228 7.09998 4 7.54769 4 8.09998V20.9C4 20.9747 4.04745 21.1332 4.20711 21.2929C4.36676 21.4525 4.52523 21.5 4.6 21.5H14.4C14.9523 21.5 15.4 21.9477 15.4 22.5C15.4 23.0523 14.9523 23.5 14.4 23.5H4.6C3.87477 23.5 3.23324 23.1474 2.79289 22.7071C2.35255 22.2667 2 21.6252 2 20.9V8.09998C2 7.54769 2.44772 7.09998 3 7.09998Z" fill="#13D684"/>
<path fill-rule="evenodd" clip-rule="evenodd" d="M15 1.5C15.5523 1.5 16 1.94772 16 2.5V6.5H20C20.5523 6.5 21 6.94772 21 7.5C21 8.05228 20.5523 8.5 20 8.5H15C14.4477 8.5 14 8.05228 14 7.5V2.5C14 1.94772 14.4477 1.5 15 1.5Z" fill="#13D684"/>
</svg>
