<svg width="32" height="32" viewBox="0 0 32 32" fill="none" xmlns="http://www.w3.org/2000/svg">
<path d="M11.9991 29.3333L11.6649 24.6548C11.4853 22.1395 13.4773 20 15.9991 20C18.5208 20 20.5129 22.1395 20.3333 24.6548L19.9991 29.3333" stroke="white" stroke-width="1.5"/>
<path d="M3.13519 17.618C2.66449 14.5549 2.42915 13.0235 3.00823 11.6658C3.58729 10.3082 4.87204 9.37924 7.44152 7.52141L9.36132 6.13333C12.5577 3.82223 14.1559 2.66667 16 2.66667C17.8441 2.66667 19.4423 3.82223 22.6387 6.13333L24.5585 7.52141C27.128 9.37924 28.4127 10.3082 28.9917 11.6658C29.5708 13.0235 29.3355 14.5549 28.8648 17.618L28.4635 20.2299C27.7961 24.5719 27.4625 26.7429 25.9053 28.0381C24.3481 29.3333 22.0716 29.3333 17.5184 29.3333H14.4816C9.92844 29.3333 7.65188 29.3333 6.09467 28.0381C4.53745 26.7429 4.20383 24.5719 3.53657 20.2299L3.13519 17.618Z" stroke="white" stroke-width="1.5" stroke-linejoin="round"/>
</svg>
