<svg width="32" height="32" viewBox="0 0 32 32" fill="none" xmlns="http://www.w3.org/2000/svg">
<path d="M3.37322 19.6928C3.08969 21.5515 4.35733 22.8416 5.9094 23.4845C11.8597 25.9496 20.1403 25.9496 26.0905 23.4845C27.6427 22.8416 28.9103 21.5515 28.6268 19.6928C28.4525 18.5505 27.5909 17.5993 26.9525 16.6705C26.1164 15.4391 26.0333 14.0957 26.0332 12.6667C26.0332 7.14381 21.5412 2.66667 16 2.66667C10.4588 2.66667 5.96684 7.14381 5.96684 12.6667C5.9667 14.0957 5.88362 15.4391 5.04748 16.6705C4.40912 17.5993 3.54748 18.5505 3.37322 19.6928Z" stroke="white" stroke-width="1.5" stroke-linecap="round" stroke-linejoin="round"/>
<path d="M10.6667 25.3333C11.278 27.6336 13.434 29.3333 16 29.3333C18.566 29.3333 20.722 27.6336 21.3333 25.3333" stroke="white" stroke-width="1.5" stroke-linecap="round" stroke-linejoin="round"/>
</svg>
