<svg width="32" height="32" viewBox="0 0 32 32" fill="none" xmlns="http://www.w3.org/2000/svg">
<path d="M8.77009 20.6421C6.88373 21.7653 1.93781 24.0588 4.95021 26.9288C6.42175 28.3307 8.06065 29.3333 10.1212 29.3333H21.8788C23.9393 29.3333 25.5783 28.3307 27.0497 26.9288C30.0621 24.0588 25.1163 21.7653 23.2299 20.6421C18.8064 18.0081 13.1936 18.0081 8.77009 20.6421Z" stroke="white" stroke-width="1.5" stroke-linecap="round" stroke-linejoin="round"/>
<path d="M22 8.66666C22 11.9804 19.3137 14.6667 16 14.6667C12.6863 14.6667 10 11.9804 10 8.66666C10 5.35296 12.6863 2.66666 16 2.66666C19.3137 2.66666 22 5.35296 22 8.66666Z" stroke="white" stroke-width="1.5"/>
</svg>
